<svg width="160" height="32" fill="none" xmlns="http://www.w3.org/2000/svg"><path fill-rule="evenodd" clip-rule="evenodd" d="M68.317 23.546V10.628H72.7V6.652h-4.383V.167h-6.17v6.485h-3.793v3.976h3.793v12.918h6.17ZM6.214 14.604v8.942H0V6.652h6.214v2.456c.508-.872 1.235-1.56 2.18-2.067a7.53 7.53 0 0 1 3.27-.725c3.3 0 5.53.99 6.694 2.969 1.526-2.003 3.597-3.004 6.213-3.004s4.615.665 5.996 1.997c1.38 1.33 2.071 3.222 2.071 5.672v9.596H26.49v-9.013c0-1.036-.313-1.855-.938-2.456-.654-.6-1.511-.901-2.572-.901-1.061 0-1.912.283-2.551.848-.64.566-.96 1.426-.96 2.58v8.942h-6.213v-9.119c-.058-1.013-.4-1.808-1.025-2.385-.64-.578-1.468-.866-2.485-.866-1.018 0-1.86.277-2.53.83-.668.554-1.002 1.42-1.002 2.598Zm51.284-7.952L44.635 31.833h-6.563l5.015-10.02-8.045-15.161h6.606l4.6 9.578 4.644-9.578h6.606Zm37.794 13.819c-1.933 2.297-5.109 3.44-9.527 3.428-3.067 0-5.654-.819-7.762-2.456-2.079-1.661-3.118-3.794-3.118-6.397 0-2.604 1.04-4.718 3.118-6.344 2.079-1.626 4.651-2.433 7.718-2.421 3.067 0 5.618.825 7.653 2.474 2.035 1.65 3.06 3.793 3.074 6.432 0 .024-.03.542-.087 1.555H81.076c.116.895.683 1.59 1.7 2.085 1.018.495 2.166.743 3.445.743 1.992 0 3.51-.53 4.557-1.59l4.513 2.49Zm-5.102-6.874h-9.026c.233-.92.814-1.638 1.745-2.156a5.504 5.504 0 0 1 2.921-.742c1.046.023 1.999.282 2.856.777.858.495 1.36 1.202 1.504 2.12Zm22.898 9.701c-1.177.4-2.303.59-3.379.566-2.863 0-5.349-.813-7.456-2.439-2.108-1.626-3.162-3.74-3.162-6.344 0-2.603 1.09-4.718 3.271-6.344 2.18-1.626 4.629-2.444 7.347-2.456 1.105 0 2.238.194 3.401.583 1.163.389 2.057.942 2.682 1.661V6.652h6.148v16.894h-6.148v-1.927c-.625.719-1.526 1.279-2.704 1.68Zm-2.376-4.206c-1.41 0-2.624-.377-3.641-1.13-1.047-.755-1.57-1.709-1.57-2.863 0-1.143.523-2.103 1.57-2.88a6.521 6.521 0 0 1 3.728-1.15c1.352 0 2.522.378 3.51 1.132.989.754 1.483 1.72 1.483 2.898 0 1.178-.494 2.138-1.483 2.88-.988.742-2.187 1.113-3.597 1.113Zm22.811-4.488v8.942h-6.214V6.652h6.214v2.456c.508-.872 1.235-1.56 2.18-2.067a7.525 7.525 0 0 1 3.27-.725c3.3 0 5.531.99 6.693 2.969 1.527-2.003 3.598-3.004 6.214-3.004 2.616 0 4.615.665 5.996 1.997 1.381 1.33 2.071 3.222 2.071 5.672v9.596h-6.148v-9.013c0-1.036-.313-1.855-.938-2.456-.654-.6-1.511-.901-2.573-.901-1.061 0-1.911.283-2.55.848-.64.566-.96 1.426-.96 2.58v8.942h-6.213v-9.119c-.058-1.013-.4-1.808-1.025-2.385-.64-.578-1.468-.866-2.486-.866-1.017 0-1.86.277-2.529.83-.668.554-1.002 1.42-1.002 2.598Z" fill="#fff"/></svg>